<?xml version="1.0" standalone="no"?>
<!DOCTYPE svg PUBLIC "-//W3C//DTD SVG 20010904//EN"
 "http://www.w3.org/TR/2001/REC-SVG-20010904/DTD/svg10.dtd">
<svg version="1.0" xmlns="http://www.w3.org/2000/svg"
 width="500.000000pt" height="500.000000pt" viewBox="0 0 500.000000 500.000000"
 preserveAspectRatio="xMidYMid meet">

<g transform="translate(0.000000,500.000000) scale(0.100000,-0.100000)"
fill="#000000" stroke="none">
<path d="M1827 4043 c-4 -3 -7 -519 -7 -1145 l0 -1138 355 0 c195 0 355 2 355
4 0 2 -29 75 -63 162 -103 258 -107 297 -38 439 48 98 62 150 63 229 1 60 -16
154 -34 189 -5 9 -19 17 -32 17 -26 0 -17 -30 -115 350 -125 483 -142 549
-188 723 l-46 177 -122 0 c-67 0 -125 -3 -128 -7z"/>
<path d="M2336 4042 c-2 -4 29 -136 70 -292 94 -360 145 -556 194 -742 34
-130 37 -149 23 -157 -14 -8 -14 -15 0 -79 30 -131 92 -226 193 -293 91 -61
130 -106 149 -172 8 -28 28 -149 45 -267 45 -315 33 -280 96 -280 l54 0 0
1145 0 1145 -409 0 c-226 0 -412 -4 -415 -8z"/>
<path d="M2783 2300 l-21 -9 54 -208 c29 -114 54 -211 54 -215 0 -4 -15 -6
-32 -4 -32 3 -34 6 -55 77 -12 41 -36 134 -54 207 -34 134 -41 146 -78 123
-12 -8 -6 -40 34 -193 65 -248 62 -226 29 -240 -41 -17 -49 -16 -49 7 -1 11
-4 29 -7 40 -4 11 -25 94 -48 185 -23 91 -45 168 -49 171 -3 4 -20 1 -37 -5
l-30 -11 57 -195 c32 -107 62 -207 67 -222 8 -22 6 -33 -15 -60 -167 -223
-121 -558 76 -558 56 0 88 15 128 58 l35 37 -7 -55 c-4 -30 -18 -74 -31 -97
-15 -25 -20 -43 -13 -43 22 0 86 75 101 120 15 40 40 259 32 269 -2 2 -19 -4
-38 -13 -31 -15 -35 -21 -41 -70 -9 -70 -36 -113 -82 -133 -50 -20 -103 -5
-138 41 -90 118 -26 429 103 495 20 10 23 9 32 -14 8 -20 16 -25 39 -23 26 2
30 5 25 25 -8 30 7 29 39 -3 54 -54 43 -142 -26 -207 l-40 -37 28 0 c52 0 110
44 135 102 25 59 25 59 -23 233 -14 50 -43 168 -64 262 -40 181 -41 183 -90
163z"/>
<path d="M1180 1914 c-17 -50 -7 -147 20 -209 38 -89 46 -183 27 -343 -9 -77
-18 -147 -19 -154 -2 -8 10 -14 35 -16 31 -3 38 0 46 20 13 37 21 113 30 315
10 196 22 256 57 270 11 4 23 -2 36 -16 16 -21 18 -45 18 -265 0 -202 3 -245
16 -264 21 -31 69 -30 90 2 8 14 30 106 48 206 33 183 51 229 78 202 9 -9 8
-52 -2 -184 -13 -186 -7 -255 30 -328 22 -42 73 -92 118 -115 42 -21 54 -12
19 15 -38 30 -76 116 -86 195 -5 41 -4 149 2 262 l11 193 -24 25 c-50 53 -127
18 -149 -68 -5 -24 -20 -101 -31 -171 -11 -71 -24 -135 -29 -144 -5 -8 -8 84
-7 209 1 206 -1 227 -19 263 -11 22 -27 44 -36 49 -42 26 -124 -33 -159 -115
l-23 -53 -30 63 c-17 37 -31 87 -34 122 -3 34 -9 63 -14 65 -4 3 -13 -11 -19
-31z"/>
<path d="M3231 1564 c-23 -29 -28 -83 -10 -112 9 -14 5 -32 -20 -86 -33 -74
-50 -80 -64 -26 l-9 34 -24 -32 c-27 -34 -58 -42 -68 -16 -19 49 4 136 37 142
14 3 17 -4 17 -36 0 -36 2 -40 21 -35 20 6 49 56 49 86 0 7 -6 21 -13 31 -12
17 -16 17 -50 2 -94 -39 -153 -167 -115 -251 15 -34 59 -34 86 0 l19 24 12
-25 c9 -20 17 -25 39 -22 28 3 51 40 95 151 14 34 24 47 39 47 18 0 19 -5 13
-72 -9 -95 3 -128 45 -128 24 0 35 7 51 35 l21 36 17 -33 c10 -21 28 -37 48
-43 l32 -11 -20 -31 -20 -31 21 5 c11 3 27 0 34 -7 31 -25 -17 -70 -54 -50
-29 16 -26 -6 4 -25 30 -20 72 -11 93 21 20 31 10 72 -22 84 -34 13 -31 35 8
59 18 11 39 32 47 46 l14 26 15 -33 c37 -77 137 -68 177 15 9 18 31 39 49 48
l34 16 3 -61 c3 -53 6 -61 24 -64 17 -2 25 7 42 45 11 26 26 67 33 91 7 23 16
42 20 42 5 0 10 -39 11 -87 3 -86 3 -88 28 -88 22 0 28 9 55 85 33 92 52 103
47 28 -11 -146 75 -168 131 -35 35 85 29 114 -7 34 -37 -84 -50 -72 -54 45 -2
70 -7 99 -18 109 -22 18 -58 -20 -86 -94 l-23 -62 -6 73 c-3 40 -10 77 -16 83
-21 21 -50 -10 -82 -83 l-30 -73 -1 76 c0 76 0 76 -25 71 -18 -3 -27 -14 -35
-41 -5 -20 -10 -42 -10 -48 0 -14 -35 -53 -47 -53 -5 0 -8 32 -8 71 0 58 -3
73 -19 85 -74 53 -128 -45 -71 -128 30 -44 31 -68 6 -99 -44 -53 -82 24 -62
125 7 32 10 61 7 63 -11 12 -37 -21 -67 -86 -51 -108 -93 -137 -134 -91 -25
27 -25 108 -2 144 25 37 37 32 37 -14 0 -38 1 -39 24 -29 42 20 62 99 30 117
-48 27 -113 -27 -164 -133 -26 -54 -46 -85 -56 -85 -14 0 -16 14 -13 103 l4
102 -35 -1 c-34 -1 -35 0 -35 39 0 49 -16 57 -44 21z m539 -146 c0 -15 -2 -28
-6 -28 -10 0 -35 71 -28 82 11 17 34 -21 34 -54z"/>
<path d="M1874 1488 c-104 -92 -95 -258 14 -258 31 0 80 38 104 79 20 36 40
54 37 34 -5 -33 4 -76 20 -92 30 -30 60 -16 86 41 l22 49 12 -45 c19 -76 66
-82 105 -12 27 46 51 115 43 122 -3 3 -17 -20 -31 -51 -38 -83 -50 -70 -54 54
-3 99 -3 102 -25 99 -19 -3 -26 -18 -49 -97 -28 -98 -39 -118 -58 -106 -8 5
-11 38 -9 104 2 90 1 96 -17 93 -25 -4 -44 -30 -44 -59 0 -28 -43 -116 -70
-143 -24 -24 -63 -26 -80 -5 -11 13 -8 21 17 48 49 52 73 93 73 124 0 60 -41
69 -96 21z m34 -55 c2 -21 -4 -39 -22 -59 l-25 -29 -1 43 c0 75 41 114 48 45z"/>
</g>
</svg>
