<?xml version="1.0" encoding="UTF-8" standalone="no"?>
<svg
   xmlns:dc="http://purl.org/dc/elements/1.1/"
   xmlns:cc="http://creativecommons.org/ns#"
   xmlns:rdf="http://www.w3.org/1999/02/22-rdf-syntax-ns#"
   xmlns:svg="http://www.w3.org/2000/svg"
   xmlns="http://www.w3.org/2000/svg"
   xmlns:sodipodi="http://sodipodi.sourceforge.net/DTD/sodipodi-0.dtd"
   xmlns:inkscape="http://www.inkscape.org/namespaces/inkscape"
   inkscape:version="1.0 (4035a4fb49, 2020-05-01)"
   sodipodi:docname="logo_meugarcom_g_red.svg"
   id="svg16"
   preserveAspectRatio="xMidYMid meet"
   viewBox="0 0 500.000000 500.000000"
   height="500.000000pt"
   width="500.000000pt"
   version="1.0">
  <metadata
     id="metadata22">
    <rdf:RDF>
      <cc:Work
         rdf:about="">
        <dc:format>image/svg+xml</dc:format>
        <dc:type
           rdf:resource="http://purl.org/dc/dcmitype/StillImage" />
        <dc:title></dc:title>
      </cc:Work>
    </rdf:RDF>
  </metadata>
  <defs
     id="defs20" />
  <sodipodi:namedview
     inkscape:current-layer="g14"
     inkscape:window-maximized="1"
     inkscape:window-y="0"
     inkscape:window-x="0"
     inkscape:cy="340.85796"
     inkscape:cx="366.58816"
     inkscape:zoom="0.77500775"
     showgrid="false"
     id="namedview18"
     inkscape:window-height="743"
     inkscape:window-width="1366"
     inkscape:pageshadow="2"
     inkscape:pageopacity="0"
     guidetolerance="10"
     gridtolerance="10"
     objecttolerance="10"
     borderopacity="1"
     bordercolor="#666666"
     pagecolor="#ffffff" />
  <g
     id="g14"
     stroke="none"
     fill="#000000"
     transform="translate(0.000000,500.000000) scale(0.100000,-0.100000)">
    <path
       style="fill:#ff0000;stroke-width:1.06037"
       id="path2"
       d="m 1685.859,4235.0182 c -4.2287,-3.1908 -7.4001,-552.0035 -7.4001,-1217.8112 V 1806.8409 h 375.2907 c 206.1457,0 375.2908,2.1272 375.2908,4.2544 0,2.1272 -30.6574,79.7694 -66.6008,172.3017 -108.8873,274.4063 -113.1159,315.8863 -40.1721,466.9162 50.7437,104.2319 65.5439,159.5386 66.601,243.5623 1.0572,63.8154 -16.9145,163.7929 -35.9434,201.0186 -5.2858,9.5723 -20.086,18.081 -33.829,18.081 -27.486,0 -17.9716,-31.9077 -121.573,372.2567 -132.1448,513.7143 -150.1163,583.9112 -198.7456,768.976 l -48.6292,188.2555 H 1821.175 c -70.8295,0 -132.1446,-3.1907 -135.316,-7.4451 z" />
    <path
       style="fill:#ff0000;stroke-width:1.06037"
       id="path4"
       d="m 2223.952,4233.9546 c -2.1143,-4.2544 30.6575,-144.6483 74.001,-310.5685 99.3728,-382.8925 153.2878,-591.3563 205.0884,-789.1841 35.9434,-138.2668 39.1149,-158.475 24.3147,-166.9838 -14.8002,-8.5087 -14.8002,-15.9538 0,-84.0236 31.7147,-139.3303 97.2585,-240.3714 204.0314,-311.632 96.2013,-64.8791 137.4304,-112.7407 157.5164,-182.9376 8.4572,-29.7806 29.6004,-158.475 47.572,-283.9787 47.5721,-335.031 34.8862,-297.8054 101.4871,-297.8054 h 57.0866 v 1217.8112 1217.8112 h -432.3773 c -238.9176,0 -435.5489,-4.2543 -438.7203,-8.5087 z" />
    <path
       style="fill:#ff2a2a;stroke-width:1.06037"
       id="path6"
       d="m 2696.5012,2381.1799 -22.2003,-9.5724 57.0866,-221.2268 c 30.6575,-121.2493 57.0864,-224.4176 57.0864,-228.672 0,-4.2543 -15.8574,-6.3815 -33.829,-4.2543 -33.829,3.1908 -35.9433,6.3815 -58.1437,81.8964 -12.6859,43.6073 -38.0576,142.5212 -57.0864,220.1633 -35.9434,142.5211 -43.3435,155.2842 -82.4583,130.8216 -12.6859,-8.5086 -6.3429,-42.5436 35.9433,-205.2729 68.7153,-263.7705 65.5438,-240.3715 30.6576,-255.2617 -43.3435,-18.0811 -51.8007,-17.0175 -51.8007,7.445 -1.0571,11.6995 -4.2286,30.8442 -7.4001,42.5437 -4.2286,11.6994 -26.4289,99.9775 -50.7436,196.7643 -24.3146,96.7867 -47.572,178.6831 -51.8006,181.8739 -3.1715,4.2544 -21.1432,1.0636 -39.1149,-5.318 l -31.7147,-11.6995 60.258,-207.4 c 33.829,-113.8043 65.5437,-220.1633 70.8295,-236.1172 8.4573,-23.3989 6.3429,-35.0985 -15.8574,-63.8154 -176.5452,-237.1807 -127.916,-593.4836 80.344,-593.4836 59.2008,0 93.0298,15.9539 135.3161,61.6883 l 37.0005,39.3528 -7.4001,-58.4975 c -4.2286,-31.9076 -19.0288,-78.7056 -32.7718,-103.1683 -15.8574,-26.5897 -21.1432,-45.7343 -13.7431,-45.7343 23.2575,0 90.9155,79.7693 106.7729,127.6309 15.8574,42.5436 42.2862,275.4699 33.829,286.1058 -2.1143,2.1272 -20.0859,-4.2544 -40.1719,-13.8267 -32.772,-15.9538 -37.0006,-22.3353 -43.3435,-74.4513 -9.5145,-74.4514 -38.0576,-120.1858 -86.6869,-141.4575 -52.8579,-21.2719 -108.8872,-5.318 -145.8877,43.6072 -95.1442,125.5036 -27.4861,456.2803 108.8872,526.4773 21.1432,10.6359 24.3147,9.5723 33.829,-14.8902 8.4573,-21.2719 16.9145,-26.5899 41.2292,-24.4627 27.4861,2.1272 31.7147,5.318 26.4289,26.5898 -8.4572,31.9077 7.4001,30.8441 41.2291,-3.1907 57.0866,-57.4339 45.4578,-151.0299 -27.4861,-220.1633 l -42.2862,-39.3528 h 29.6004 c 54.9721,0 116.2872,46.7979 142.7162,108.4862 26.4289,62.7518 26.4289,62.7518 -24.3147,247.8166 -14.8002,53.1795 -45.4577,178.6832 -67.658,278.6607 -42.2862,192.5098 -43.3434,194.637 -95.1442,173.3653 z" />
    <path
       style="stroke-width:1.06037"
       id="path8"
       d="m 1001.8781,1970.6339 c -17.97155,-53.1795 -7.40006,-156.3478 21.1432,-222.2905 40.172,-94.6595 48.6293,-194.637 28.5433,-364.8114 -9.5144,-81.8966 -19.0289,-156.3479 -20.086,-163.793 -2.1143,-8.5087 10.5716,-14.8903 37.0005,-17.0175 32.7718,-3.1908 40.1719,0 48.6292,21.2719 13.7431,39.3528 22.2003,120.1856 31.7148,335.031 10.5716,208.4637 23.2574,272.2792 60.2579,287.1694 11.6287,4.2543 24.3146,-2.1271 38.0577,-17.0174 16.9144,-22.3355 19.0288,-47.8616 19.0288,-281.8516 0,-214.8452 3.1714,-260.5796 16.9145,-280.7878 22.2003,-32.9713 72.9438,-31.9077 95.1442,2.1272 8.4572,14.8903 31.7147,112.7406 50.7436,219.0996 34.8861,194.6371 53.9149,243.5623 82.4582,214.8453 9.5143,-9.5723 8.4573,-55.3068 -2.1143,-195.7007 -13.7431,-197.8278 -7.4001,-271.2155 31.7147,-348.8577 23.2574,-44.6708 77.1724,-97.8503 124.7446,-122.3128 44.4005,-22.3355 57.0864,-12.7632 20.086,15.9538 -40.1721,31.9077 -80.344,123.3765 -90.9156,207.4001 -5.2858,43.6072 -4.2286,158.475 2.1144,278.6608 l 11.6287,205.273 -25.3718,26.5897 c -52.8579,56.3703 -134.259,19.1447 -157.5164,-72.3242 -5.2858,-25.5261 -21.1432,-107.4226 -32.7719,-181.8739 -11.6288,-75.5149 -25.3718,-143.5848 -30.6576,-153.1571 -5.2858,-8.5087 -8.4573,89.3416 -7.4001,222.2905 1.0571,219.0996 -1.0572,241.435 -20.0859,279.7242 -11.6288,23.3991 -28.5433,46.798 -38.0577,52.116 -44.4006,27.6534 -131.0875,-35.0985 -168.088,-122.3129 l -24.3147,-56.3703 -31.7146,67.0062 c -17.9717,39.3529 -32.7719,92.5323 -35.9434,129.7581 -3.1715,36.162 -9.5145,67.0061 -14.8002,69.1333 -4.2287,3.1908 -13.7431,-11.6994 -20.0861,-32.9713 z" />
    <path
       style="stroke-width:1.06037"
       id="path10"
       d="m 3170.1077,1598.3772 c -24.3146,-30.8441 -29.6004,-88.278 -10.5716,-119.1221 9.5145,-14.8903 5.2858,-34.035 -21.1431,-91.4688 -34.8863,-78.7057 -52.8579,-85.0873 -67.6581,-27.6534 l -9.5144,36.1621 -25.3718,-34.0349 c -28.5432,-36.162 -61.3151,-44.6708 -71.8867,-17.0175 -20.086,52.116 4.2287,144.6484 39.1149,151.0299 14.8001,3.1908 17.9716,-4.2544 17.9716,-38.2893 0,-38.2892 2.1143,-42.5436 22.2003,-37.2256 21.1432,6.3816 51.8008,59.5611 51.8008,91.4688 0,7.4451 -6.343,22.3354 -13.7431,32.9712 -12.6859,18.0811 -16.9145,18.0811 -52.8579,2.1272 -99.3728,-41.48 -161.7451,-177.6195 -121.573,-266.9611 15.8573,-36.1622 62.3722,-36.1622 90.9155,0 l 20.0859,25.5261 12.6859,-26.5897 c 9.5144,-21.2719 17.9717,-26.5898 41.2292,-23.3991 29.6004,3.1908 53.915,42.5436 100.4299,160.6022 14.8003,36.1621 25.3717,49.9888 41.2291,49.9888 19.0289,0 20.086,-5.318 13.7431,-76.5785 -9.5144,-101.0411 3.1715,-136.1396 47.5721,-136.1396 25.3717,0 37.0005,7.4451 53.915,37.2256 l 22.2003,38.2893 17.9716,-35.0985 c 10.5716,-22.3354 29.6004,-39.3529 50.7436,-45.7344 l 33.8291,-11.6994 -21.1432,-32.9714 -21.1432,-32.9713 22.2004,5.318 c 11.6287,3.1908 28.5432,0 35.9433,-7.4452 32.7719,-26.5898 -17.9716,-74.4513 -57.0865,-53.1795 -30.6576,17.0175 -27.4861,-6.3815 4.2286,-26.5898 31.7148,-21.2718 76.1153,-11.6994 98.3157,22.3354 21.1431,32.9713 10.5716,76.5786 -23.2575,89.3416 -35.9434,13.8267 -32.7719,37.2258 8.4573,62.7519 19.0288,11.6995 41.2291,34.0349 49.6863,48.9252 l 14.8002,27.6534 15.8574,-35.0986 c 39.1149,-81.8964 144.8305,-72.3241 187.1168,15.9539 9.5145,19.1447 32.772,41.48 51.8007,51.0523 l 35.9434,17.0175 3.1715,-64.879 c 3.1714,-56.3703 6.3429,-64.8791 25.3718,-68.0699 17.9716,-2.1271 26.4288,7.4452 44.4005,47.8616 11.6288,27.6534 27.4861,71.2606 34.8863,96.7867 7.4001,24.4627 16.9145,44.6708 21.143,44.6708 5.2858,0 10.5716,-41.48 11.6288,-92.5323 3.1714,-91.4688 3.1714,-93.596 29.6004,-93.596 23.2575,0 29.6004,9.5724 58.1436,90.4052 34.8862,97.8503 54.9723,109.5498 49.6865,29.7806 -11.6288,-155.2842 79.2868,-178.6833 138.4875,-37.2258 37.0006,90.4053 30.6576,121.2494 -7.4001,36.1622 -39.1147,-89.3416 -52.8578,-76.5786 -57.0864,47.8616 -2.1144,74.4513 -7.4002,105.2954 -19.0289,115.9314 -23.2575,19.1445 -61.3151,-21.2719 -90.9155,-99.9776 l -24.3147,-65.9426 -6.3428,77.6421 c -3.1715,42.5436 -10.5716,81.8965 -16.9146,88.2781 -22.2003,22.3353 -52.8579,-10.636 -86.6868,-88.2781 l -31.7148,-77.6421 -1.0572,80.8329 c 0,80.8329 0,80.8329 -26.4289,75.5149 -19.0288,-3.1907 -28.5432,-14.8903 -37.0005,-43.6072 -5.2858,-21.2718 -10.5715,-44.6709 -10.5715,-51.0523 0,-14.8903 -37.0006,-56.3703 -49.6865,-56.3703 -5.2857,0 -8.4572,34.0348 -8.4572,75.5149 0,61.6882 -3.1714,77.6421 -20.086,90.4051 -78.2296,56.3703 -135.3162,-47.8615 -75.0581,-136.1395 31.7146,-46.798 32.7718,-72.3241 6.3429,-105.2955 -46.5149,-56.3703 -86.6869,25.5262 -65.5438,132.9489 7.4001,34.0348 10.5716,64.8789 7.4001,67.0061 -11.6287,12.7631 -39.1147,-22.3353 -70.8295,-91.4688 -53.915,-114.8678 -98.3156,-145.7118 -141.659,-96.7867 -26.429,28.7169 -26.429,114.8678 -2.1143,153.1571 26.4288,39.3528 39.1147,34.0348 39.1147,-14.8903 0,-40.4165 1.0572,-41.4801 25.3718,-30.8441 44.4006,21.2717 65.5437,105.2954 31.7148,124.44 -50.7436,28.717 -119.4588,-28.7169 -173.3738,-141.4575 -27.4861,-57.4339 -48.6293,-90.4052 -59.2009,-90.4052 -14.8002,0 -16.9145,14.8903 -13.7431,109.5499 l 4.2287,108.4862 -37.0005,-1.0636 c -35.9433,-1.0636 -37.0005,0 -37.0005,41.48 0,52.116 -16.9145,60.6247 -46.5149,22.3354 z m 569.8077,-155.2843 c 0,-15.9537 -2.1143,-29.7804 -6.3429,-29.7804 -10.5716,0 -37.0005,75.5149 -29.6004,87.2144 11.6288,18.081 35.9433,-22.3354 35.9433,-57.434 z" />
    <path
       style="stroke-width:1.06037"
       id="path12"
       d="m 1735.5453,1517.5443 c -109.9444,-97.8503 -100.4299,-274.4064 14.8002,-274.4064 32.7719,0 84.5726,40.4166 109.9444,84.0238 21.1431,38.2892 42.2862,57.4339 39.1148,36.162 -5.2858,-35.0985 4.2286,-80.8328 21.1431,-97.8503 31.7148,-31.9077 63.4294,-17.0175 90.9156,43.6072 l 23.2575,52.1159 12.6859,-47.8616 c 20.0859,-80.8328 69.7723,-87.2144 111.0014,-12.7631 28.5433,48.9252 53.9151,122.313 45.4578,129.7581 -3.1715,3.1908 -17.9717,-21.2718 -32.7719,-54.2431 -40.1719,-88.278 -52.8578,-74.4514 -57.0865,57.4339 -3.1714,105.2955 -3.1714,108.4863 -26.4289,105.2955 -20.086,-3.1908 -27.4861,-19.1447 -51.8007,-103.1683 -29.6004,-104.2319 -41.2292,-125.5037 -61.3152,-112.7406 -8.4573,5.3179 -11.6287,40.4164 -9.5144,110.6134 2.1143,95.7232 1.0571,102.1047 -17.9716,98.9139 -26.429,-4.2543 -46.515,-31.9077 -46.515,-62.7518 0,-29.7805 -45.4577,-123.3766 -74.001,-152.0935 -25.3718,-25.5262 -66.6008,-27.6534 -84.5725,-5.3179 -11.6288,13.8267 -8.4573,22.3354 17.9717,51.0523 51.8006,55.3067 77.1724,98.9139 77.1724,131.8852 0,63.8155 -43.3435,73.3878 -101.4871,22.3354 z m 35.9434,-58.4975 c 2.1143,-22.3353 -4.2286,-41.48 -23.2575,-62.7518 l -26.429,-30.8441 -1.0571,45.7344 c 0,79.7693 43.3435,121.2493 50.7436,47.8615 z" />
  </g>
</svg>
